<svg id="Layer_1" height="512" viewBox="0 0 512 512" width="512" xmlns="http://www.w3.org/2000/svg" data-name="Layer 1"><path d="m82.38 21.2-.03 54.61h.03l349.37.44.77-55.12v-.01z" fill="#e5ab42"/><path d="m390.34 436.01c49.53-7.77 81.26-19.72 81.26-33.12v45.59c0 17.56-54.42 32.62-131.97 39.06l-.03-.39v-45.2c18.34-1.52 35.4-3.53 50.74-5.94z" fill="#c79a83"/><path d="m339.6 487.15.03.39c-25.88 2.15-54.34 3.34-84.21 3.34-31.09 0-60.65-1.29-87.36-3.6l.06-.72v-44.87c26.16 2.26 55.04 3.54 85.42 3.59h1.88c29.86 0 58.31-1.19 84.18-3.33z" fill="#e1b7a3"/><path d="m168.12 441.69v44.87l-.06.72c-75.88-6.59-128.83-21.48-128.83-38.8v-45.59c0 9.93 17.41 19.06 46.58 26.29 21.7 5.37 49.92 9.69 82.31 12.51z" fill="#daaa79"/><path d="m88.11 370.06v.01l-2.3 59.11c-29.17-7.23-46.58-16.36-46.58-26.29v-59.68c0 10.19 18.33 19.54 48.88 26.85z" fill="#c2684f"/><path d="m168.12 441.69c-32.39-2.82-60.61-7.14-82.31-12.51l2.3-59.11v-.01c21.38 5.12 48.74 9.24 79.99 11.94 26.16 2.28 55.05 3.56 85.44 3.61v59.67c-30.38-.05-59.26-1.33-85.42-3.59z" fill="#c79a83"/><path d="m390.34 376.52v59.49c-15.34 2.41-32.4 4.42-50.74 5.94-25.87 2.14-54.32 3.33-84.18 3.33h-1.88v-59.67h1.88c29.86 0 58.31-1.19 84.18-3.33 18.33-1.53 35.37-3.53 50.71-5.94z" fill="#daaa79"/><path d="m471.6 343.21v59.68c0 13.4-31.73 25.35-81.26 33.12v-59.49l-.03-.18c49.55-7.76 81.29-19.72 81.29-33.13z" fill="#c2684f"/><path d="m471.6 235.42v48.12c0 13.36-31.48 25.27-80.68 33.04v-.57l-1.71-47.29c50.18-7.76 82.39-19.79 82.39-33.3z" fill="#c79a83"/><path d="m471.6 283.54v59.67c0 13.41-31.74 25.37-81.29 33.13-15.34 2.41-32.38 4.41-50.71 5.94v-59.67c18.57-1.54 35.82-3.58 51.32-6.03 49.2-7.77 80.68-19.68 80.68-33.04z" fill="#e1b7a3"/><path d="m267.88 325.87c25.32-.28 49.47-1.42 71.72-3.26v59.67c-25.87 2.14-54.32 3.33-84.18 3.33h-1.88c-30.39-.05-59.28-1.33-85.44-3.61l.02-.23 3.11-59.16c25.87 2.14 54.32 3.33 84.19 3.33q6.27 0 12.46-.07z" fill="#c2684f"/><path d="m171.23 322.61-3.11 59.16-.02.23c-31.25-2.7-58.61-6.82-79.99-11.94-30.55-7.31-48.88-16.66-48.88-26.85v-59.67c0 10.18 18.28 19.52 48.75 26.82 22.11 5.31 50.63 9.54 83.25 12.25z" fill="#e1b7a3"/><path d="m88.11 262.27v47.53l-.13.56c-30.47-7.3-48.75-16.64-48.75-26.82v-48.12c0 10.18 18.33 19.53 48.88 26.85z" fill="#daaa79"/><path d="m267.88 277.82v48.05q-6.18.075-12.46.07c-29.87 0-58.32-1.19-84.19-3.33-32.62-2.71-61.14-6.94-83.25-12.25l.13-.56v-47.53c39.65 9.49 99.87 15.55 167.31 15.55q6.27 0 12.46-.07z" fill="#c79a83"/><path d="m390.92 316.01v.57c-15.5 2.45-32.75 4.49-51.32 6.03-22.25 1.84-46.4 2.98-71.72 3.26v-48.12c45.69-.51 87.57-3.8 121.33-9.03z" fill="#daaa79"/><path d="m59.93 21.2a20.761 20.761 0 0 0 -20.7 20.82v193.4c0-9.53 16.01-18.32 43.05-25.4l.1-188.82z" fill="#ec6437"/><path d="m452.06 21.12h-19.54v.01l-2.64 188.83-.1.39c25.63 6.85 41.04 15.26 41.79 24.37l1.2-192.66a20.764 20.764 0 0 0 -20.71-20.94z" fill="#ec6437"/><path d="m82.28 210.02c39.43-10.32 102.31-17 173.14-17 12.12 0 24.01.2 35.58.57 56.78 1.85 106.1 8.03 138.78 16.76 25.63 6.85 41.04 15.26 41.79 24.37.02.23.03.47.03.7 0 13.51-32.21 25.54-82.39 33.3-33.76 5.23-75.64 8.52-121.33 9.03q-6.18.075-12.46.07c-67.44 0-127.66-6.06-167.31-15.55-30.55-7.32-48.88-16.67-48.88-26.85 0-9.53 16.01-18.32 43.05-25.4z" fill="#e1b7a3"/><path d="m291 212.04c-12.03-.4-24.57-.62-37.46-.62-90.88 0-164.55 10.74-164.55 24s73.67 24 164.55 24c12.89 0 25.43-.22 37.46-.63 72.82-2.47 127.08-12 127.08-23.37s-54.26-20.9-127.08-23.38z" fill="#3090fc"/><path d="m324.26 76.26q.03.57.03 1.14a23.275 23.275 0 0 1 -23.21 23.34h-10.35v-.44l-10-45.75v-.49h20.35a23.265 23.265 0 0 1 23.18 22.2z" fill="#6d7486"/><path d="m290.73 100.3v.44h-20v-.44l-10-45.75v-.49h20v.49z" fill="#a7a9ac"/><path d="m270.73 100.3v.44h-20v-.44l-10-45.75v-.49h20v.49z" fill="#ccd3df"/><path d="m250.73 100.3v.44h-20v-.44l-10-45.75v-.49h20v.49z" fill="#a7a9ac"/><path d="m230.73 100.3v.44h-20.35a23.34 23.34 0 0 1 0-46.68h10.35v.49z" fill="#6d7486"/><path d="m128.99 235.42c0-12.268 63.062-22.378 144.468-23.822q-9.8-.173-19.918-.178c-90.88 0-164.55 10.74-164.55 24s73.67 24 164.55 24q10.1 0 19.883-.179c-81.389-1.448-144.433-11.564-144.433-23.821z" fill="#49bdff"/><path d="m39.23 402.89v45.59c0 7.872 10.941 15.242 30 21.559v-45.6c-19.057-6.313-30-13.679-30-21.549z" fill="#fccb9d"/><path d="m69.23 424.443v-59.678c-19.056-6.316-30-13.684-30-21.555v59.68c0 7.87 10.943 15.236 30 21.553z" fill="#ea917d"/><path d="m69.23 364.765v-59.665c-19.056-6.314-30-13.685-30-21.559v59.67c0 7.87 10.944 15.238 30 21.554z" fill="#ffd7c7"/><path d="m39.23 235.42v48.12c0 7.874 10.944 15.245 30 21.559v-48.129c-19.056-6.32-30-13.687-30-21.55z" fill="#f7c394"/><path d="m73.49 477.658c23.317 6.886 55.839 12.281 94.053 15.6 27.792 2.4 57.358 3.623 87.877 3.623 29.365 0 57.865-1.131 84.706-3.36 39.028-3.241 72.308-8.628 96.243-15.578 27.744-8.056 41.231-17.693 41.231-29.462l1.17-406.381a26.764 26.764 0 0 0 -26.71-26.98l-392.13.08a26.791 26.791 0 0 0 -26.7 26.82v406.46c0 11.632 13.17 21.176 40.26 29.178zm18.51-53.173 1.828-46.977c20.615 4.464 45.912 8.063 73.754 10.47 25.278 2.2 52.155 3.4 79.961 3.593v47.669c-27.372-.191-53.894-1.367-78.9-3.528-29.467-2.565-55.82-6.432-76.643-11.227zm241.6-95.385v47.629c-24.927 1.908-51.186 2.886-78.18 2.886h-1.87c-27.481-.045-54.06-1.1-79.144-3.117l2.493-47.429c25.058 1.9 51.428 2.876 78.521 2.876 4.522 0 8.622-.023 12.526-.07 22.561-.255 44.605-1.192 65.654-2.775zm-59.72-9.317v-36.122c39.744-.655 77.359-3.4 109.576-8.017l1.295 35.808c-14.11 2.093-29.432 3.834-45.646 5.178-20.828 1.723-42.744 2.77-65.225 3.148zm59.72 162.206c-24.892 1.91-51.149 2.891-78.18 2.891-28.16 0-55.467-1.062-81.3-3.132v-33.556c25.268 2 51.935 3.043 79.42 3.088h1.88c26.965 0 53.219-.966 78.18-2.85zm5.5-46.018c-25.286 2.091-52.039 3.188-79.565 3.289v-47.67c27.858-.1 54.944-1.212 80.559-3.331 15.727-1.313 30.568-2.978 44.241-4.956v47.548c-13.988 2.068-29.172 3.789-45.23 5.12zm126.5 12.509c0 7.2-29.521 24.333-120 32.517v-33.546c16.254-1.454 31.6-3.3 45.67-5.513 36-5.647 60.835-12.934 74.33-21.769zm0-45.59c0 4.078-12.672 16.4-69.26 26.056v-47.5c33.268-5.519 56.408-12.527 69.26-20.944zm0-59.68c0 6.136-20.3 18.445-76.221 27.2-13.405 2.106-28.107 3.891-43.779 5.319v-47.619c16.478-1.474 32.02-3.353 46.256-5.6 35.677-5.635 60.321-12.892 73.744-21.681zm0-59.67c0 2.668-4.746 7.686-18.122 13.047-12.168 4.876-29.639 9.324-50.788 12.957l-1.29-35.734q50.668-8.315 70.2-21.1zm-27.163-256.42h13.623a14.558 14.558 0 0 1 10.4 4.334 14.761 14.761 0 0 1 4.314 10.569l-1.1 176.122c-6.877-4.486-16.763-8.571-29.735-12.309zm-350.061.08 338.06-.077-.6 43.128h-96.419a29.2 29.2 0 0 0 -28.337-22.191h-90.7a29.3 29.3 0 0 0 -28.586 23.265l-93.441-1.425zm207.28 67.54-7.58-34.68h13a17.237 17.237 0 0 1 17.187 16.486v.029q.023.412.022.825a17.3 17.3 0 0 1 -17.21 17.34zm1.344 123.527c30.642 1.227 57.854 3.705 79.012 7.2 24.52 4.055 32.649 8.129 35.2 9.947-2.555 1.819-10.686 5.891-35.206 9.946-21.167 3.5-48.377 5.977-79.009 7.2zm0-111.527h4.08a29.292 29.292 0 0 0 28.8-24.49h95.781l-1.68 120.45c-32.444-7.765-76.964-13-126.981-14.9zm-13.627-12h-7.717l-7.58-34.68h7.717zm-20 0h-7.717l-7.58-34.68h7.717zm-20 0h-7.717l-7.58-34.68h7.717zm-20 0h-12.993a17.34 17.34 0 0 1 0-34.68h5.413zm-135.026-12.84 93.413 1.425a29.3 29.3 0 0 0 28.62 23.413h74.62v80.68c-9.871-.261-19.791-.4-29.58-.4-65.211 0-125.462 5.56-167.136 15.335zm-43.117-39.88a14.777 14.777 0 0 1 14.7-14.82h16.446l-.094 178.235q-20.4 5.737-31.052 12.645zm38.57 173.805c40.2-10.523 104.362-16.8 171.621-16.8 9.789 0 19.712.141 29.58.4v6.44c-10.44-.289-20.99-.444-31.46-.444-44.238 0-85.868 2.518-117.221 7.09-26.371 3.846-53.329 9.575-53.329 22.91 0 8.209 9.688 12.5 16.975 15.012 8.641 2.98 20.873 5.635 36.354 7.894 31.36 4.574 72.991 7.094 117.221 7.094 12.666 0 25.338-.213 37.663-.633 35.845-1.216 68.417-4.214 91.716-8.441 28.851-5.234 41.161-11.492 41.161-20.926s-12.31-15.7-41.161-20.931c-22.026-4-52.361-6.893-85.919-8.229v-6.452c52.839 2.031 99.258 7.8 131.231 16.338 28.41 7.594 36.793 15.354 37.335 18.916l-.006.534h.022c-.377 6.253-21.092 18.5-77.29 27.195-34.655 5.369-76.316 8.467-120.485 8.959-3.862.047-7.914.07-12.387.07-31 0-60.91-1.267-88.893-3.764a6 6 0 1 0 -1.067 11.952c28.336 2.529 58.6 3.812 89.96 3.812 2.249 0 4.392-.006 6.46-.017v36.119c-2.067.012-4.21.018-6.46.018-28.989 0-57.149-1.113-83.693-3.31-29.7-2.467-56.393-6.259-77.617-11.011v-35.837c13.771 2.974 29.5 5.546 46.89 7.66a6 6 0 0 0 1.448-11.912 480.257 480.257 0 0 1 -52.94-9.1c-43.776-10.484-44.279-20.586-44.279-21.011 0-3.527 8.123-11.62 38.57-19.595zm201.2 2.043v35.1c-10.355.295-20.9.454-31.46.454-40.89 0-79.995-2.209-110.112-6.219-33.857-4.509-44.453-9.671-47.517-11.783 3.063-2.112 13.657-7.275 47.513-11.782 30.111-4.009 69.218-6.216 110.116-6.216 10.471-.002 21.022.155 31.46.446zm-239.77 34.883c8.107 5.265 20.366 9.979 36.88 14.209v35.723c-36.43-9.771-36.88-18.743-36.88-19.143zm0 48.134c8.824 5.731 22.553 10.806 41.349 15.309 21.159 5.082 48.15 9.174 78.355 11.892l-2.491 47.378c-28.058-2.641-53.17-6.506-72.937-11.239-43.773-10.475-44.276-20.59-44.276-21.015zm0 59.665c8.077 5.246 20.275 9.941 36.7 14.154l-1.82 46.777c-34.456-9.581-34.88-18.206-34.88-18.591zm0 59.67c8.474 5.5 21.469 10.4 39.139 14.784 20.838 5.157 47.626 9.343 77.751 12.166v33.544c-88.129-8.325-116.89-25.19-116.89-32.234z" fill="#284268"/></svg>